<?xml version="1.0" encoding="UTF-8" standalone="no"?><!DOCTYPE svg PUBLIC "-//W3C//DTD SVG 1.1//EN" "http://www.w3.org/Graphics/SVG/1.1/DTD/svg11.dtd"><svg width="100%" height="100%" viewBox="0 0 455 349" version="1.1" xmlns="http://www.w3.org/2000/svg" xmlns:xlink="http://www.w3.org/1999/xlink" xml:space="preserve" style="fill-rule:evenodd;clip-rule:evenodd;stroke-linejoin:round;stroke-miterlimit:1.41421;"><g><path d="M124.231,24.199c7.362,0.043 14.604,0.912 21.612,2.534l17.012,-20.614l23.213,10.181l-3.744,27.219c5.87,4.316 11.274,9.281 16.092,14.818l25.885,-6.652l12.773,21.894l-19.024,19.776c0.91,2.881 1.697,5.827 2.353,8.836c0.915,4.198 1.549,8.392 1.914,12.563l24.839,9.835l-2.539,25.22l-27.022,4.813c-2.311,6.907 -5.371,13.522 -9.105,19.727l14.345,22.577l-16.868,18.919l-24.686,-11.971c-5.865,4.207 -12.244,7.806 -19.065,10.686l-1.678,26.664l-24.77,5.379l-12.925,-24.207c-7.349,-0.051 -14.576,-0.925 -21.572,-2.55l-17.024,20.609l-23.208,-10.192l3.759,-27.233c-5.819,-4.287 -11.179,-9.211 -15.964,-14.698l-25.899,6.686l-12.797,-21.88l19.023,-19.818c-0.921,-2.906 -1.716,-5.879 -2.378,-8.915c-0.908,-4.165 -1.539,-8.326 -1.906,-12.464l-24.877,-9.824l2.516,-25.222l27.049,-4.843c2.308,-6.917 5.366,-13.541 9.1,-19.755l-14.368,-22.596l16.862,-18.926l24.71,11.972c5.844,-4.195 12.199,-7.788 18.994,-10.666l1.655,-26.682l24.766,-5.399l12.947,24.199Zm-11.327,50.607c26.715,-5.825 53.134,11.136 58.958,37.851c5.825,26.716 -11.136,53.134 -37.851,58.959c-26.715,5.824 -53.134,-11.136 -58.958,-37.852c-5.825,-26.715 11.136,-53.133 37.851,-58.958Z"/><path d="M327.571,126.408l11.097,-24.315l25.056,3.826l3.429,27.261c6.787,2.65 13.291,6.047 19.379,10.148l23.281,-13.124l18.005,17.841l-13.258,24.026c1.624,2.547 3.147,5.19 4.559,7.926c1.971,3.818 3.669,7.705 5.101,11.64l26.538,3.07l4.074,25.018l-24.855,11.643c-0.444,7.27 -1.688,14.451 -3.688,21.412l19.699,18.094l-11.397,22.641l-26.943,-5.174c-4.576,5.581 -9.806,10.709 -15.65,15.256l5.281,26.19l-22.534,11.606l-18.75,-20.036c-7.111,1.852 -14.319,2.879 -21.497,3.119l-11.11,24.313l-25.055,-3.838l-3.417,-27.277c-6.73,-2.635 -13.183,-6.004 -19.225,-10.065l-23.285,13.16l-18.025,-17.821l13.246,-24.067c-1.641,-2.568 -3.179,-5.235 -4.604,-7.996c-1.955,-3.788 -3.642,-7.644 -5.067,-11.546l-26.572,-3.05l-4.097,-25.014l24.873,-11.679c0.439,-7.278 1.679,-14.469 3.677,-21.437l-19.727,-18.108l11.389,-22.644l26.967,5.168c4.559,-5.565 9.767,-10.68 15.586,-15.219l-5.307,-26.201l22.524,-11.625l18.77,20.023c7.122,-1.863 14.342,-2.898 21.532,-3.145Zm-19.375,54.96c24.297,-12.541 54.205,-2.996 66.746,21.302c12.54,24.298 2.995,54.205 -21.302,66.746c-24.298,12.541 -54.206,2.996 -66.746,-21.302c-12.541,-24.298 -2.996,-54.205 21.302,-66.746Z"/></g></svg>